<svg width="512" height="512" viewBox="0 0 512 512" fill="none" xmlns="http://www.w3.org/2000/svg">
<rect width="512" height="512" rx="128" fill="#0052CC"/>
<path d="M334.31,142.349c-3.69-5.83-9.59-10.4-16.11-13.25-22.7-9.91-48.49-3.79-65.06,12.78-10.7,10.7-17.7,24.81-18.7,40.15-.99,15.34,3.79,29.89,12.78,41.76,14.07,18.75,37.89,28.75,61.71,28.75,10.7,0,21.4-2.85,30.39-7.62,17.84-9.91,28.75-29.45,28.75-50.53,0-23.78-14.07-44.42-33.76-52.02Zm-30.39,78.85c-6.84,0-13.68-1.91-19.58-5.72-10.9-6.67-17.84-18.11-17.84-30.9-1.02-18.75,13.06-34.47,31.38-35.46,18.32-1.02,34.47,13.06,35.46,31.38,1.02,17.16-11.79,31.84-28.43,34.47-0.32,0-0.64,0.06-0.96,0.06h-0.03Z" fill="white"/>
<path d="M198.81,263.381c15.06-15.06,35.01-23.36,56.32-23.36,21.31,0,41.26,8.3,56.32,23.36" stroke="white" stroke-width="30" stroke-miterlimit="10" stroke-linecap="round"/>
<path d="M162.81,227.381c24.36-24.36,56.76-37.8,91.32-37.8,34.56,0,66.96,13.44,91.32,37.8" stroke="white" stroke-width="30" stroke-miterlimit="10" stroke-linecap="round"/>
</svg>
